<svg xmlns="http://www.w3.org/2000/svg" viewBox="0 0 200.71 72.18"><path d="M97,21.71a7.06,7.06,0,0,0-5.19-2.12,6.92,6.92,0,0,0-5.19,2.09,7.44,7.44,0,0,0-2,5.4,7.49,7.49,0,0,0,2,5.44,6.94,6.94,0,0,0,5.19,2.12v0A7,7,0,0,0,97,32.45,7.38,7.38,0,0,0,99.09,27,7.18,7.18,0,0,0,97,21.71Z" fill="none"/><path d="M194.26,60.11a2.72,2.72,0,0,0-2,.81,2.76,2.76,0,0,0-.8,2,2.88,2.88,0,0,0,.8,2.08,2.72,2.72,0,0,0,2,.82v0a2.67,2.67,0,0,0,2-.81A2.89,2.89,0,0,0,197,63a2.81,2.81,0,0,0-.77-2.06A2.63,2.63,0,0,0,194.26,60.11Z" fill="none"/><path d="M65.28,19.61a7.1,7.1,0,0,0-5.19,2.12A7.2,7.2,0,0,0,58,27.05a7.38,7.38,0,0,0,2.1,5.42,7,7,0,0,0,5.19,2.14v0a6.87,6.87,0,0,0,5.18-2.12,7.48,7.48,0,0,0,2-5.44,7.41,7.41,0,0,0-2-5.39A6.85,6.85,0,0,0,65.28,19.61Z" fill="none"/><path d="M172.39,60.13a2.64,2.64,0,0,0-2,.8,3.09,3.09,0,0,0,0,4.08,2.86,2.86,0,0,0,4,0,3.09,3.09,0,0,0,0-4.08A2.63,2.63,0,0,0,172.39,60.13Z" fill="none"/><path d="M137.92,60.1a2.63,2.63,0,0,0-2,.8,2.82,2.82,0,0,0-.78,2.06,2.89,2.89,0,0,0,.78,2.09,2.67,2.67,0,0,0,2,.81v0a2.66,2.66,0,0,0,2-.82,2.84,2.84,0,0,0,.81-2.08,2.73,2.73,0,0,0-.81-2A2.69,2.69,0,0,0,137.92,60.1Z" fill="none"/><path d="M122.88,60.1a2.63,2.63,0,0,0-2,.8,2.81,2.81,0,0,0-.77,2.06,2.89,2.89,0,0,0,.77,2.09,2.67,2.67,0,0,0,2,.81v0a2.69,2.69,0,0,0,2-.82,2.88,2.88,0,0,0,.8-2.08,2.76,2.76,0,0,0-.8-2A2.72,2.72,0,0,0,122.88,60.1Z" fill="none"/><path d="M72.69,60.13a2.65,2.65,0,0,0-2,.8,3.12,3.12,0,0,0,0,4.08,2.88,2.88,0,0,0,4,0,3.12,3.12,0,0,0,0-4.08A2.65,2.65,0,0,0,72.69,60.13Z" fill="none"/><path d="M7.29,62.06H3.06v3.51H7.29a2.06,2.06,0,0,0,1.45-.5,1.66,1.66,0,0,0,.54-1.28,1.61,1.61,0,0,0-.54-1.24A2.05,2.05,0,0,0,7.29,62.06Z" fill="none"/><path d="M8.29,59.47a1.57,1.57,0,0,0,.5-1.21,1.52,1.52,0,0,0-.52-1.19,1.91,1.91,0,0,0-1.36-.45H3.06V60H7A1.84,1.84,0,0,0,8.29,59.47Z" fill="none"/><path d="M55.37,60.12a2.74,2.74,0,0,0-2,.74,2.54,2.54,0,0,0-.77,1.91,2.58,2.58,0,0,0,.77,1.93,2.7,2.7,0,0,0,2,.74,2.65,2.65,0,0,0,1.94-.74,2.58,2.58,0,0,0,.77-1.93,2.54,2.54,0,0,0-.77-1.91A2.68,2.68,0,0,0,55.37,60.12Z" fill="none"/><path d="M17.28,60.1a2.66,2.66,0,0,0-2,.8A2.86,2.86,0,0,0,14.52,63a2.93,2.93,0,0,0,.77,2.09,2.71,2.71,0,0,0,2,.81v0a2.67,2.67,0,0,0,2-.82,2.83,2.83,0,0,0,.8-2.08,2.75,2.75,0,0,0-2.79-2.84Z" fill="none"/><path d="M112.44,60a2.56,2.56,0,0,0-1.77.64,2.43,2.43,0,0,0-.82,1.53H115a2.41,2.41,0,0,0-.79-1.55A2.62,2.62,0,0,0,112.44,60Z" fill="none"/><rect y="4.54" width="7.04" height="35.32" fill="#1b1464"/><path d="M39.62,13.61l0,0A10.38,10.38,0,0,0,31,17.47q-2.49-3.84-7.71-3.84a9.2,9.2,0,0,0-7.61,3.74v-3H9V39.86h6.67V27.05a8.74,8.74,0,0,1,1.41-5.32,4.82,4.82,0,0,1,4.1-1.89c3.19,0,4.79,2.09,4.79,6.25V39.86h6.75v-13a8.44,8.44,0,0,1,1.4-5.2,4.77,4.77,0,0,1,4-1.85c3.26,0,4.89,2.1,4.89,6.26V39.83h6.7V24.66c0-3.49-.92-6.2-2.75-8.15A9.64,9.64,0,0,0,39.62,13.61Z" fill="#1b1464"/><path d="M66.44,13.63h0Z" fill="#1b1464"/><path d="M98.89,36.73v3.13h6.75V14.34H98.89v3.08a9.84,9.84,0,0,0-8.22-3.79,11.91,11.91,0,0,0-9,3.84A12.91,12.91,0,0,0,78.54,23a12.86,12.86,0,0,0-3.11-5.53,11.89,11.89,0,0,0-9-3.84,10,10,0,0,0-8.27,3.79V14.34H51.52V50.45h6.67V36.73a10.07,10.07,0,0,0,8.3,3.84,11.78,11.78,0,0,0,8.94-3.86,13.22,13.22,0,0,0,3.11-5.52,12.91,12.91,0,0,0,3.11,5.54,11.79,11.79,0,0,0,9,3.87l0,0A9.8,9.8,0,0,0,98.89,36.73ZM70.46,32.54a6.87,6.87,0,0,1-5.18,2.12v0a7,7,0,0,1-5.19-2.14A7.38,7.38,0,0,1,58,27.05a7.2,7.2,0,0,1,2.1-5.32,7.1,7.1,0,0,1,5.19-2.12,6.85,6.85,0,0,1,5.18,2.1,7.41,7.41,0,0,1,2,5.39A7.48,7.48,0,0,1,70.46,32.54ZM91.8,34.59v0a6.94,6.94,0,0,1-5.19-2.12,7.49,7.49,0,0,1-2-5.44,7.44,7.44,0,0,1,2-5.4,6.92,6.92,0,0,1,5.19-2.09A7.06,7.06,0,0,1,97,21.71,7.18,7.18,0,0,1,99.09,27,7.38,7.38,0,0,1,97,32.45,7,7,0,0,1,91.8,34.59Z" fill="#1b1464"/><path d="M119.56,40.65l.12-.08a13.3,13.3,0,0,0,8.26-2.51,10.57,10.57,0,0,0,4.17-5.79l-6.22-1.72a5.16,5.16,0,0,1-2.18,2.88,7,7,0,0,1-4.1,1.21,6.38,6.38,0,0,1-5-2.24,7.84,7.84,0,0,1-1.95-5.32,7.71,7.71,0,0,1,1.93-5.32,6.36,6.36,0,0,1,5-2.19,6.66,6.66,0,0,1,4.1,1.25,5.33,5.33,0,0,1,2.15,3L132,22a8.61,8.61,0,0,0-.74-1.85h2.83v11a9.67,9.67,0,0,0,2.15,6.7c1.43,1.6,3.55,2.41,6.4,2.41a16,16,0,0,0,6-1.2L147,33.65a6.69,6.69,0,0,1-3,.72c-2.11,0-3.14-1.09-3.14-3.23v-11h7.48V14.34h-7.48V6.07h-6.72v8.27h-4.3V18.1a14.61,14.61,0,0,0-2-1.86,14.35,14.35,0,0,0-18,1.26A13,13,0,0,0,106,27.1a13.24,13.24,0,0,0,13.59,13.55Z" fill="#1b1464"/><path d="M197.31,0h-40.8a3.41,3.41,0,0,0-3.41,3.39v6.78a3.41,3.41,0,0,1,3.41-3.39h34a3.41,3.41,0,0,1,3.4,3.39V44.08a3.41,3.41,0,0,1-3.4,3.39h6.8a3.41,3.41,0,0,0,3.4-3.39V3.39A3.41,3.41,0,0,0,197.31,0Z" fill="#4abaff"/><path d="M193.91,44.08V10.17a3.41,3.41,0,0,0-3.4-3.39h-34a3.41,3.41,0,0,0-3.41,3.39V17a3.41,3.41,0,0,1,3.41-3.4h27.2a3.41,3.41,0,0,1,3.4,3.4V44.08a3.41,3.41,0,0,1-3.4,3.39h6.8A3.41,3.41,0,0,0,193.91,44.08Z" fill="#4893ff"/><path d="M187.11,44.08V17a3.41,3.41,0,0,0-3.4-3.4h-27.2A3.41,3.41,0,0,0,153.1,17v6.78a3.41,3.41,0,0,1,3.41-3.4h20.4a3.41,3.41,0,0,1,3.4,3.4V44.08a3.41,3.41,0,0,1-3.4,3.39h6.8A3.41,3.41,0,0,0,187.11,44.08Z" fill="#4571ff"/><path d="M180.31,44.08V23.74a3.41,3.41,0,0,0-3.4-3.4h-20.4a3.41,3.41,0,0,0-3.41,3.4v6.78a3.4,3.4,0,0,1,3.41-3.39h13.6a3.4,3.4,0,0,1,3.4,3.39V44.08a3.41,3.41,0,0,1-3.4,3.39h6.8A3.41,3.41,0,0,0,180.31,44.08Z" fill="#4343ff"/><path d="M156.51,47.47h.34a5.25,5.25,0,0,1-2.51-.8A3.39,3.39,0,0,0,156.51,47.47Z" fill="#3232d6"/><path d="M173.51,44.08V30.52a3.4,3.4,0,0,0-3.4-3.39h-13.6a3.4,3.4,0,0,0-3.41,3.39v7.12c.23-2,1-3.69,3.41-3.73,3.06.35,10.1-1.57,10.2,3.39-.36,3.06,1.56,10.07-3.41,10.17h6.81A3.41,3.41,0,0,0,173.51,44.08Z" fill="#3232d6"/><path d="M160.83,47.47h2.47A16.86,16.86,0,0,0,160.83,47.47Z" fill="#3232d6"/><path d="M153.1,41.61v2.47a2.84,2.84,0,0,0,.09.72,4,4,0,0,1-.09-.72A15.56,15.56,0,0,0,153.1,41.61Z" fill="#3232d6"/><path d="M154.23,46.58l-.17-.15Z" fill="#3232d6"/><path d="M166.71,37.3c-.1-5-7.14-3-10.2-3.39-2.39,0-3.18,1.69-3.41,3.73a26.31,26.31,0,0,0,0,4,15.56,15.56,0,0,1,0,2.47,4,4,0,0,0,.09.72,2.84,2.84,0,0,0,.87,1.63l.17.15.11.09a5.25,5.25,0,0,0,2.51.8,26.44,26.44,0,0,0,4,0,16.86,16.86,0,0,1,2.47,0C168.27,47.37,166.35,40.36,166.71,37.3Z" fill="#1b1464"/><path d="M9.72,60.77h0A3,3,0,0,0,11.42,58a3.26,3.26,0,0,0-1.25-2.61,5,5,0,0,0-3.23-1H.46V67.87H7.3a5.1,5.1,0,0,0,3.38-1A3.46,3.46,0,0,0,11.91,64a3.33,3.33,0,0,0-.58-2A3.69,3.69,0,0,0,9.72,60.77ZM3.06,56.62H6.91a1.91,1.91,0,0,1,1.36.45,1.52,1.52,0,0,1,.52,1.19,1.57,1.57,0,0,1-.5,1.21A1.84,1.84,0,0,1,7,60H3.06Zm5.68,8.45a2.06,2.06,0,0,1-1.45.5H3.06V62.06H7.29a2.05,2.05,0,0,1,1.45.49,1.61,1.61,0,0,1,.54,1.24A1.66,1.66,0,0,1,8.74,65.07Z" fill="#1b1464"/><path d="M20,59.27a3.76,3.76,0,0,0-3.15-1.46,4.57,4.57,0,0,0-3.46,1.47,5.59,5.59,0,0,0,0,7.38,4.54,4.54,0,0,0,3.45,1.48h0A3.76,3.76,0,0,0,20,66.66v1.2h2.58V58.09H20ZM19.27,65a2.67,2.67,0,0,1-2,.82v0a2.71,2.71,0,0,1-2-.81A2.93,2.93,0,0,1,14.52,63a2.86,2.86,0,0,1,.77-2.06,2.66,2.66,0,0,1,2-.8,2.75,2.75,0,0,1,2.79,2.84A2.83,2.83,0,0,1,19.27,65Z" fill="#1b1464"/><path d="M26.36,59.52V58.09H23.81v9.77h2.55V63.6a3.7,3.7,0,0,1,.81-2.71,2.69,2.69,0,0,1,2.42-.54V58A2.87,2.87,0,0,0,26.36,59.52Z" fill="#1b1464"/><path d="M32.54,59.52V58.09H30v9.77h2.56V63.6a3.7,3.7,0,0,1,.81-2.71,2.67,2.67,0,0,1,2.41-.54V58A2.85,2.85,0,0,0,32.54,59.52Z" fill="#1b1464"/><rect x="36.13" y="58.11" width="2.57" height="9.77" fill="#1b1464"/><path d="M37.45,53.75a1.53,1.53,0,0,0-1.08.42,1.44,1.44,0,0,0-.44,1,1.5,1.5,0,0,0,1.52,1.51v0a1.49,1.49,0,0,0,1.08-.42A1.46,1.46,0,0,0,39,55.22a1.44,1.44,0,0,0-.44-1A1.49,1.49,0,0,0,37.45,53.75Z" fill="#1b1464"/><path d="M45.7,57.82h0a3.77,3.77,0,0,0-3.15,1.51V58.09H40v9.77h2.56V63A3.15,3.15,0,0,1,43.2,61a2.11,2.11,0,0,1,1.71-.77,1.9,1.9,0,0,1,1.56.65A2.71,2.71,0,0,1,47,62.63v5.24h2.57V62.15a4.74,4.74,0,0,0-1-3.17A3.6,3.6,0,0,0,45.7,57.82Z" fill="#1b1464"/><path d="M58,59.23a3.73,3.73,0,0,0-3.09-1.42,4.69,4.69,0,0,0-3.48,1.39,5.27,5.27,0,0,0,0,7.1,4.6,4.6,0,0,0,3.46,1.43A3.76,3.76,0,0,0,58,66.32V67.5a2.78,2.78,0,0,1-.64,1.86,2.21,2.21,0,0,1-1.79.72A2.82,2.82,0,0,1,53,68.81l-2.24.79a5,5,0,0,0,4.73,2.58,5.15,5.15,0,0,0,3.67-1.31,4.41,4.41,0,0,0,1.39-3.36V58.09H58Zm-.72,5.47a2.65,2.65,0,0,1-1.94.74,2.7,2.7,0,0,1-2-.74,2.58,2.58,0,0,1-.77-1.93,2.54,2.54,0,0,1,.77-1.91,2.74,2.74,0,0,1,2-.74,2.68,2.68,0,0,1,1.94.74,2.54,2.54,0,0,1,.77,1.91A2.58,2.58,0,0,1,57.31,64.7Z" fill="#1b1464"/><path d="M66.26,65.75a1.07,1.07,0,0,1-1.2-1.23v-4.2h2.86V58.09H65.06V54.92H62.48v3.17H60.84v2.23h1.64v4.2a3.7,3.7,0,0,0,.83,2.56,3.09,3.09,0,0,0,2.45.93,6,6,0,0,0,2.29-.47l-.63-2.06A2.57,2.57,0,0,1,66.26,65.75Z" fill="#1b1464"/><path d="M72.7,57.81a5.15,5.15,0,0,0-3.76,1.47,5.31,5.31,0,0,0,0,7.37,5.12,5.12,0,0,0,3.76,1.48h0a5.11,5.11,0,0,0,3.75-1.48,5.33,5.33,0,0,0,0-7.37A5.15,5.15,0,0,0,72.7,57.81Zm2,7.2a2.88,2.88,0,0,1-4,0,3.12,3.12,0,0,1,0-4.08,2.88,2.88,0,0,1,4,0,3.12,3.12,0,0,1,0,4.08Z" fill="#1b1464"/><path d="M84.3,57.82h0a3.79,3.79,0,0,0-3.15,1.51V58.09H78.6v9.77h2.55V63A3.1,3.1,0,0,1,81.81,61a2.1,2.1,0,0,1,1.71-.77,1.9,1.9,0,0,1,1.56.65,2.77,2.77,0,0,1,.53,1.79v5.24h2.56V62.15a4.74,4.74,0,0,0-1-3.17A3.59,3.59,0,0,0,84.3,57.82Z" fill="#1b1464"/><polygon points="99.75 60.73 95.31 54.33 92.77 54.33 92.77 67.86 95.43 67.86 95.43 58.95 99.75 64.92 104.07 58.95 104.07 67.86 106.73 67.86 106.73 54.33 104.18 54.33 99.75 60.73" fill="#1b1464"/><path d="M112.47,57.82a4.91,4.91,0,0,0-3.71,1.47,5.11,5.11,0,0,0-1.42,3.7,4.93,4.93,0,0,0,1.47,3.73,5.32,5.32,0,0,0,3.85,1.42h0a5.2,5.2,0,0,0,3-.84,4.58,4.58,0,0,0,1.71-1.94l-2.3-.68A2.47,2.47,0,0,1,112.71,66a3,3,0,0,1-2-.6,2.45,2.45,0,0,1-.86-1.62h7.62a5.6,5.6,0,0,0-1.31-4.49A4.83,4.83,0,0,0,112.47,57.82Zm-2.62,4.33a2.43,2.43,0,0,1,.82-1.53,2.56,2.56,0,0,1,1.77-.64,2.62,2.62,0,0,1,1.8.62,2.41,2.41,0,0,1,.79,1.55Z" fill="#1b1464"/><path d="M125.59,59.27a3.73,3.73,0,0,0-3.15-1.46A4.57,4.57,0,0,0,119,59.28a5.59,5.59,0,0,0,0,7.38,4.52,4.52,0,0,0,3.44,1.48,3.76,3.76,0,0,0,3.15-1.47v1.2h2.59V53.77h-2.58ZM124.87,65a2.69,2.69,0,0,1-2,.82v0a2.67,2.67,0,0,1-2-.81,2.89,2.89,0,0,1-.77-2.09,2.81,2.81,0,0,1,.77-2.06,2.63,2.63,0,0,1,2-.8,2.72,2.72,0,0,1,2,.81,2.76,2.76,0,0,1,.8,2A2.88,2.88,0,0,1,124.87,65Z" fill="#1b1464"/><rect x="129.37" y="58.11" width="2.57" height="9.77" fill="#1b1464"/><path d="M130.7,53.75a1.49,1.49,0,0,0-1.08.42,1.44,1.44,0,0,0-.44,1,1.46,1.46,0,0,0,.44,1.07,1.43,1.43,0,0,0,1.08.44v0a1.53,1.53,0,0,0,1.08-.42,1.46,1.46,0,0,0,.44-1.07,1.44,1.44,0,0,0-.44-1A1.53,1.53,0,0,0,130.7,53.75Z" fill="#1b1464"/><path d="M140.63,59.27a3.76,3.76,0,0,0-3.15-1.46A4.55,4.55,0,0,0,134,59.28a5.59,5.59,0,0,0,0,7.38,4.5,4.5,0,0,0,3.44,1.48h0a3.76,3.76,0,0,0,3.15-1.47v1.2h2.58V58.09h-2.58ZM139.9,65a2.66,2.66,0,0,1-2,.82v0a2.67,2.67,0,0,1-2-.81,2.89,2.89,0,0,1-.78-2.09,2.82,2.82,0,0,1,.78-2.06,2.63,2.63,0,0,1,2-.8,2.69,2.69,0,0,1,2,.81,2.73,2.73,0,0,1,.81,2A2.84,2.84,0,0,1,139.9,65Z" fill="#1b1464"/><path d="M154.52,62.62h4.17a3.3,3.3,0,0,1-1.23,2.18,4.06,4.06,0,0,1-2.69.87,4.55,4.55,0,0,1-3.46-1.33A4.5,4.5,0,0,1,150,61.08a4.45,4.45,0,0,1,1.25-3.2,4.17,4.17,0,0,1,3.18-1.31,4.12,4.12,0,0,1,4,2.34l2.46-.7a6.14,6.14,0,0,0-2.39-3,7.12,7.12,0,0,0-4.11-1.17,6.92,6.92,0,0,0-5.07,2,7.16,7.16,0,0,0,0,10,7.1,7.1,0,0,0,5.18,2,7,7,0,0,0,5-1.78,6.1,6.1,0,0,0,1.9-4.64V60.34h-6.93Z" fill="#1b1464"/><path d="M172.4,57.81a5.12,5.12,0,0,0-3.76,1.47,4.74,4.74,0,0,0-.74,1V58a2.87,2.87,0,0,0-3.23,1.57V58.09h-2.56v9.77h2.56V63.6a3.7,3.7,0,0,1,.81-2.71,2.64,2.64,0,0,1,2.36-.54,5.13,5.13,0,0,0,4.55,7.78h0a5.07,5.07,0,0,0,3.74-1.48,5.3,5.3,0,0,0,0-7.37A5.11,5.11,0,0,0,172.4,57.81Zm2,7.2a2.86,2.86,0,0,1-4,0,3.09,3.09,0,0,1,0-4.08,2.86,2.86,0,0,1,4,0,3.09,3.09,0,0,1,0,4.08Z" fill="#1b1464"/><path d="M185.2,62.9a3.24,3.24,0,0,1-.64,2.09,2.13,2.13,0,0,1-1.73.77,1.88,1.88,0,0,1-1.56-.65,2.71,2.71,0,0,1-.54-1.79V58.11h-2.56V63.8a4.76,4.76,0,0,0,1,3.19A3.56,3.56,0,0,0,182,68.15a3.72,3.72,0,0,0,3.15-1.51v1.23h2.57V58.11l-2.56,0Z" fill="#1b1464"/><path d="M194.72,57.81a3.86,3.86,0,0,0-3.17,1.46V58.09H189V71.91h2.56V66.66a3.84,3.84,0,0,0,3.17,1.47,4.51,4.51,0,0,0,3.43-1.48,5.58,5.58,0,0,0,0-7.37A4.61,4.61,0,0,0,194.72,57.81Zm1.53,7.25a2.67,2.67,0,0,1-2,.81v0a2.72,2.72,0,0,1-2-.82,2.88,2.88,0,0,1-.8-2.08,2.76,2.76,0,0,1,.8-2,2.72,2.72,0,0,1,2-.81,2.63,2.63,0,0,1,2,.8A2.81,2.81,0,0,1,197,63,2.89,2.89,0,0,1,196.25,65.06Z" fill="#1b1464"/><polygon points="194.71 57.81 194.72 57.81 194.72 57.81 194.71 57.81" fill="#1b1464"/></svg>